<?xml version="1.0" encoding="UTF-8"?>
<svg width="22px" height="22px" viewBox="0 0 22 22" version="1.1" xmlns="http://www.w3.org/2000/svg" xmlns:xlink="http://www.w3.org/1999/xlink">
    <!-- Generator: Sketch 64 (93537) - https://sketch.com -->
    <title>1722017</title>
    <desc>Created with Sketch.</desc>
    <g id="Workspace" stroke="none" stroke-width="1" fill="none" fill-rule="evenodd">
        <g id="4-customize-template-copy-3" transform="translate(-530.000000, -406.000000)" fill-rule="nonzero">
            <g id="Group-17" transform="translate(261.000000, 397.000000)">
                <g id="1722017" transform="translate(269.000000, 9.000000)">
                    <path d="M22,11.4999166 C22,17.2989131 17.2989131,22 11.4999166,22 C5.7009202,22 1,17.2989131 1,11.4999166 C1,5.7009202 5.7009202,1 11.4999166,1 C17.2989131,1 22,5.7009202 22,11.4999166 Z" id="Path" fill="#CBE558"></path>
                    <polygon id="Path" fill="#FFFFFF" points="14.6138086 6 9.5868395 11.1298134 7.38635617 8.8843114 5 11.3194888 7.20048338 13.5649908 9.5868395 16 17 8.43517742"></polygon>
                    <path d="M10.0696397,17 C9.95639176,17 9.84781384,16.9540176 9.76775636,16.8722712 L5.12508981,12.1318316 C4.9583034,11.9615266 4.9583034,11.6854621 5.12508981,11.5151571 L7.54032385,9.04897043 C7.70711026,8.87866543 7.97747102,8.87866543 8.14425743,9.04897043 L10.0696397,11.0149714 L14.8557426,6.12772877 C14.9358001,6.04598237 15.0445448,6 15.1577928,6 C15.2708739,6 15.3796187,6.04598237 15.4596762,6.12772877 L17.8749102,8.59408577 C18.0416966,8.76422047 18.0416966,9.04028487 17.8749102,9.21058987 L10.3715231,16.8724415 C10.2914657,16.9541879 10.1828877,17 10.0696397,17 L10.0696397,17 Z M6.03090681,11.8235795 L10.0696397,15.9475151 L16.96926,8.90233784 L15.1577928,7.0524849 L10.3715231,11.9397275 C10.2047367,12.1100325 9.93437596,12.1100325 9.76775636,11.9397275 L7.84237405,9.97372661 L6.03090681,11.8235795 Z" id="Shape" fill="#000000"></path>
                    <path d="M10.9972969,22 C10.7166577,22 10.4356828,21.9892578 10.1542044,21.9677734 C7.54016437,21.7673645 5.0781932,20.6345672 3.22181188,18.7783509 C1.14420898,16.7005768 0,13.938324 0,11 C0,8.06184388 1.14420898,5.29942321 3.22181188,3.22181703 C5.29941475,1.1442108 8.06183101,0 10.9999824,0 C13.9383017,0 16.7005501,1.1442108 18.7783209,3.22181703 C20.6345343,5.0782013 21.7673298,7.5401764 21.9677384,10.1542206 C22.165965,12.7398987 21.4459039,15.3171844 19.9403216,17.4115753 C19.8018483,17.6042633 19.533294,17.6480713 19.3406063,17.5095978 C19.1479187,17.3711243 19.1041108,17.1025696 19.242584,16.9098816 C22.1527051,12.8619232 21.7018697,7.36091615 18.170549,3.82942201 C14.2167589,-0.124374379 7.78337381,-0.124374379 3.82958373,3.82942201 C-0.12437418,7.78338623 -0.12437418,14.2166138 3.82958373,18.170578 C7.3609044,21.7017365 12.8620706,22.1527405 16.9100225,19.2424469 C17.1027101,19.1039734 17.3710966,19.1479492 17.5097377,19.3406372 C17.648211,19.5333252 17.6042352,19.801712 17.4115475,19.9403534 C15.5450954,21.2821198 13.2949464,22 10.9972969,22 L10.9972969,22 Z" id="Path" fill="#000000"></path>
                    <path d="M18.5,19 C18.3683593,19 18.2394531,18.9464843 18.1464844,18.8535156 C18.0535157,18.7603515 18,18.6314453 18,18.5 C18,18.3683593 18.0535157,18.2394531 18.1464844,18.1464844 C18.2394531,18.0535157 18.3683593,18 18.5,18 C18.6314453,18 18.7603515,18.0535157 18.8535156,18.1464844 C18.9464843,18.2394531 19,18.3683593 19,18.5 C19,18.6314453 18.9464843,18.7603515 18.8535156,18.8535156 C18.7603515,18.9464843 18.6314453,19 18.5,19 Z" id="Path" fill="#000000"></path>
                </g>
            </g>
        </g>
    </g>
</svg>