<?xml version="1.0" encoding="UTF-8"?>
<svg width="30px" height="30px" viewBox="0 0 30 30" version="1.1" xmlns="http://www.w3.org/2000/svg"
    xmlns:xlink="http://www.w3.org/1999/xlink">
    <!-- Generator: Sketch 64 (93537) - https://sketch.com -->
    <title>Group 15</title>
    <desc>Created with Sketch.</desc>
    <g id="Page-1" stroke="none" stroke-width="1" fill="none" fill-rule="evenodd">
        <g id="2" transform="translate(-1097.000000, -170.000000)">
            <g id="Group-3" transform="translate(363.000000, 159.000000)">
                <g id="Group-15" transform="translate(734.000000, 11.000000)">
                    <circle id="Oval" fill="#FFFFFF" cx="15" cy="15" r="15"></circle>
                    <g id="149690" transform="translate(7.500000, 7.500000)" fill="#82008F" fill-rule="nonzero">
                        <path
                            d="M14.6011779,14.3608293 C14.0694151,14.8925921 13.2074283,14.8925921 12.6756656,14.3608293 L7.6201743,9.30533805 L2.32433445,14.6011779 C1.79257166,15.1329407 0.930584871,15.1329407 0.398822088,14.6011779 C-0.132940696,14.0694151 -0.132940696,13.2074283 0.398822088,12.6756656 L5.69466195,7.3798257 L0.639170695,2.32433445 C0.107407912,1.79257166 0.107407912,0.929903997 0.639170695,0.398822088 C1.17093348,-0.132940696 2.03292027,-0.132940696 2.56468305,0.398822088 L7.6201743,5.45431334 L12.4346361,0.639851569 C12.9663989,0.108088786 13.8283856,0.108088786 14.3601484,0.639851569 C14.8919112,1.17161435 14.8919112,2.03360114 14.3601484,2.56536393 L9.54568666,7.3798257 L14.6011779,12.4353169 C15.1329407,12.9670797 15.1329407,13.8290665 14.6011779,14.3608293 Z"
                            id="Shape"></path>
                    </g>
                </g>
            </g>
        </g>
    </g>
</svg>