<?xml version="1.0" encoding="UTF-8"?>
<svg width="16px" height="16px" viewBox="0 0 16 16" version="1.1" xmlns="http://www.w3.org/2000/svg" xmlns:xlink="http://www.w3.org/1999/xlink">
    <!-- Generator: Sketch 64 (93537) - https://sketch.com -->
    <title>Group 14</title>
    <desc>Created with Sketch.</desc>
    <g id="Page-1" stroke="none" stroke-width="1" fill="none" fill-rule="evenodd">
        <g id="3" transform="translate(-346.000000, -138.000000)" fill="#FFFFFF" fill-rule="nonzero">
            <g id="Group-12" transform="translate(336.000000, 128.000000)">
                <g id="992703" transform="translate(18.000000, 18.000000) scale(-1, 1) rotate(90.000000) translate(-18.000000, -18.000000) translate(10.000000, 10.000000)">
                    <g id="Group-14">
                        <path d="M8,0 C3.58853125,0 0,3.58853125 0,8 C0,12.4114688 3.58853125,16 8,16 C12.4114688,16 16,12.4108437 16,8 C16,3.58915625 12.4114687,0 8,0 Z M8,14.7606563 C4.27265625,14.7606563 1.23934375,11.7279688 1.23934375,8 C1.23934375,4.27203125 4.27265625,1.23934375 8,1.23934375 C11.7279688,1.23934375 14.7606563,4.27203125 14.7606563,8 C14.7606563,11.7279687 11.7273437,14.7606563 8,14.7606563 Z" id="Shape"></path>
                        <path d="M11.5347467,8.90369489 L8.42310475,5.77757152 C8.18038237,5.53498071 7.78833582,5.53498071 7.54561343,5.77757152 L4.43397147,8.90369489 C4.23421352,9.1375204 4.23421352,9.48327693 4.43397147,9.71710244 C4.65739281,9.97908411 5.05069471,10.0096996 5.31146279,9.78523848 L7.9812521,7.10305565 L10.6572554,9.78527001 C10.8999778,10.0278608 11.2920243,10.0278608 11.5347467,9.78527001 C11.7762138,9.54141801 11.7762138,9.14751537 11.5347467,8.90369489 Z" id="Path"></path>
                    </g>
                </g>
            </g>
        </g>
    </g>
</svg>