<?xml version="1.0" encoding="UTF-8"?>
<svg width="17px" height="14px" viewBox="0 0 17 14" version="1.1" xmlns="http://www.w3.org/2000/svg" xmlns:xlink="http://www.w3.org/1999/xlink">
    <!-- Generator: Sketch 64 (93537) - https://sketch.com -->
    <title>507257</title>
    <desc>Created with Sketch.</desc>
    <g id="Page-1" stroke="none" stroke-width="1" fill="none" fill-rule="evenodd">
        <g id="4" transform="translate(-656.000000, -682.000000)" fill="#FFFFFF" fill-rule="nonzero">
            <g id="Group-20" transform="translate(376.000000, 219.000000)">
                <g id="507257" transform="translate(288.312500, 470.000000) scale(-1, 1) translate(-288.312500, -470.000000) translate(280.000000, 463.000000)">
                    <path d="M15.5152832,5.85419063 C15.447739,5.84335004 15.3793828,5.83834949 15.3109896,5.8392255 L3.66529772,5.8392255 L3.91923442,5.72242448 C4.16745016,5.60624396 4.39326189,5.44812458 4.58655643,5.25522039 L7.85230046,2.02567212 C8.28240573,1.61964257 8.35467435,0.96646935 8.02356009,0.478058575 C7.63818901,-0.0423994802 6.89915202,-0.155404469 6.37282393,0.225695366 C6.33030429,0.256501636 6.2898885,0.29008193 6.25190872,0.326217246 L0.346404159,6.16626836 C-0.115111023,6.62215735 -0.115517026,7.36169033 0.345481424,7.81809032 C0.345776699,7.81838232 0.346108883,7.81871083 0.346404159,7.81900283 L6.25190872,13.6590539 C6.713793,14.1145414 7.46161442,14.1135194 7.92224378,13.6567544 C7.95848881,13.6208016 7.99233473,13.5825493 8.02356009,13.5422529 C8.35467435,13.0538421 8.28240573,12.4006689 7.85230046,11.9946394 L4.59246194,8.75925106 C4.41917229,8.58769956 4.21993533,8.4438518 4.00191148,8.33292733 L3.64758121,8.17524595 L15.2459922,8.17524595 C15.8493502,8.19740164 16.3787049,7.78060449 16.4920536,7.19411736 C16.5964703,6.55736929 16.1591677,5.95748653 15.5152832,5.85419063 Z" id="Path"></path>
                </g>
            </g>
        </g>
    </g>
</svg>