<?xml version="1.0" encoding="UTF-8"?>
<svg width="20px" height="20px" viewBox="0 0 20 20" version="1.1" xmlns="http://www.w3.org/2000/svg" xmlns:xlink="http://www.w3.org/1999/xlink">
    <!-- Generator: Sketch 64 (93537) - https://sketch.com -->
    <title>747310</title>
    <desc>Created with Sketch.</desc>
    <g id="Page-1" stroke="none" stroke-width="1" fill="none" fill-rule="evenodd">
        <g id="3" transform="translate(-1007.000000, -385.000000)" fill="#CCCCCC" fill-rule="nonzero">
            <g id="747310" transform="translate(1007.000000, 385.000000)">
                <path d="M17.65625,1.5625 L16.71875,1.5625 L16.71875,0 L15.15625,0 L15.15625,1.5625 L4.84375,1.5625 L4.84375,0 L3.28125,0 L3.28125,1.5625 L2.34375,1.5625 C1.05140625,1.5625 0,2.61390625 0,3.90625 L0,17.65625 C0,18.9485938 1.05140625,20 2.34375,20 L17.65625,20 C18.9485938,20 20,18.9485938 20,17.65625 L20,3.90625 C20,2.61390625 18.9485938,1.5625 17.65625,1.5625 Z M18.4375,17.65625 C18.4375,18.0870313 18.0870313,18.4375 17.65625,18.4375 L2.34375,18.4375 C1.91296875,18.4375 1.5625,18.0870313 1.5625,17.65625 L1.5625,7.34375 L18.4375,7.34375 L18.4375,17.65625 Z M18.4375,5.78125 L1.5625,5.78125 L1.5625,3.90625 C1.5625,3.47546875 1.91296875,3.125 2.34375,3.125 L3.28125,3.125 L3.28125,4.6875 L4.84375,4.6875 L4.84375,3.125 L15.15625,3.125 L15.15625,4.6875 L16.71875,4.6875 L16.71875,3.125 L17.65625,3.125 C18.0870313,3.125 18.4375,3.47546875 18.4375,3.90625 L18.4375,5.78125 Z" id="Shape"></path>
                <rect id="Rectangle" x="3.15789474" y="8.42105263" width="2.10526316" height="2.10526316"></rect>
                <rect id="Rectangle" x="6.31578947" y="8.42105263" width="2.10526316" height="2.10526316"></rect>
                <rect id="Rectangle" x="9.47368421" y="8.42105263" width="2.10526316" height="2.10526316"></rect>
                <rect id="Rectangle" x="11.5789474" y="8.42105263" width="2.10526316" height="2.10526316"></rect>
                <rect id="Rectangle" x="14.7368421" y="8.42105263" width="2.10526316" height="2.10526316"></rect>
                <rect id="Rectangle" x="3.15789474" y="11.5789474" width="2.10526316" height="2.10526316"></rect>
                <rect id="Rectangle" x="6.31578947" y="11.5789474" width="2.10526316" height="2.10526316"></rect>
                <rect id="Rectangle" x="9.47368421" y="11.5789474" width="2.10526316" height="2.10526316"></rect>
                <rect id="Rectangle" x="11.5789474" y="11.5789474" width="2.10526316" height="2.10526316"></rect>
                <rect id="Rectangle" x="3.15789474" y="14.7368421" width="2.10526316" height="2.10526316"></rect>
                <rect id="Rectangle" x="6.31578947" y="14.7368421" width="2.10526316" height="2.10526316"></rect>
                <rect id="Rectangle" x="9.47368421" y="14.7368421" width="2.10526316" height="2.10526316"></rect>
                <rect id="Rectangle" x="11.5789474" y="14.7368421" width="2.10526316" height="2.10526316"></rect>
                <rect id="Rectangle" x="14.7368421" y="11.5789474" width="2.10526316" height="2.10526316"></rect>
            </g>
        </g>
    </g>
</svg>