<?xml version="1.0" encoding="UTF-8"?>
<svg width="20px" height="20px" viewBox="0 0 20 20" version="1.1" xmlns="http://www.w3.org/2000/svg" xmlns:xlink="http://www.w3.org/1999/xlink">
    <!-- Generator: Sketch 64 (93537) - https://sketch.com -->
    <title>2441655</title>
    <desc>Created with Sketch.</desc>
    <g id="Page-1" stroke="none" stroke-width="1" fill="none" fill-rule="evenodd">
        <g id="3" transform="translate(-1339.000000, -385.000000)" fill="#CCCCCC" fill-rule="nonzero">
            <g id="2441655" transform="translate(1339.000000, 385.000000)">
                <path d="M10,20 C7.32890625,20 4.81769531,18.9598047 2.92890625,17.0710937 C1.04019531,15.1823047 0,12.6710938 0,10 C0,7.32890625 1.04019531,4.81769531 2.92890625,2.92890625 C4.81769531,1.04019531 7.32890625,-2.22044605e-15 10,-2.22044605e-15 C12.6710938,-2.22044605e-15 15.1823047,1.04019531 17.0710937,2.92890625 C18.9598047,4.81769531 20,7.32890625 20,10 C20,12.6710938 18.9598047,15.1823047 17.0710937,17.0710937 C15.1823047,18.9598047 12.6710938,20 10,20 Z M10,1.171875 C7.64191406,1.171875 5.425,2.09015625 3.75757812,3.75757813 C2.09015625,5.425 1.171875,7.64191406 1.171875,10 C1.171875,12.3580859 2.09015625,14.575 3.75757812,16.2424219 C5.425,17.9098438 7.64191406,18.828125 10,18.828125 C12.3580859,18.828125 14.575,17.9098438 16.2424219,16.2424219 C17.9098438,14.575 18.828125,12.3580859 18.828125,10 C18.828125,7.64191406 17.9098438,5.425 16.2424219,3.75757813 C14.575,2.09015625 12.3580859,1.171875 10,1.171875 Z" id="Shape"></path>
                <polygon id="Path" points="9.4140625 2.34515625 10.5859375 2.34515625 10.5859375 3.90890625 9.4140625 3.90890625"></polygon>
                <polygon id="Path" transform="translate(14.857773, 5.141117) rotate(-45.000000) translate(-14.857773, -5.141117) " points="14.0760165 4.55526833 15.6395304 4.55526833 15.6395304 5.72696636 14.0760165 5.72696636"></polygon>
                <polygon id="Path" points="16.0910937 9.4140625 17.6548437 9.4140625 17.6548437 10.5859375 16.0910937 10.5859375"></polygon>
                <polygon id="Path" transform="translate(14.856734, 14.859922) rotate(-45.000000) translate(-14.856734, -14.859922) " points="14.2708852 14.0781649 15.4425832 14.0781649 15.4425832 15.6416788 14.2708852 15.6416788"></polygon>
                <polygon id="Path" points="9.4140625 16.0910937 10.5859375 16.0910937 10.5859375 17.6548437 9.4140625 17.6548437"></polygon>
                <polygon id="Path" transform="translate(5.137930, 14.858883) rotate(-45.000000) translate(-5.137930, -14.858883) " points="4.35617276 14.2730336 5.91968662 14.2730336 5.91968662 15.4447317 4.35617276 15.4447317"></polygon>
                <polygon id="Path" points="2.34515625 9.4140625 3.90890625 9.4140625 3.90890625 10.5859375 2.34515625 10.5859375"></polygon>
                <polygon id="Path" transform="translate(5.138969, 5.140078) rotate(-45.000000) translate(-5.138969, -5.140078) " points="4.55311989 4.3583212 5.72481792 4.3583212 5.72481792 5.92183505 4.55311989 5.92183505"></polygon>
                <polygon id="Path" points="14.1364063 10.5859375 9.4140625 10.5859375 9.4140625 5.86359375 10.5859375 5.86359375 10.5859375 9.4140625 14.1364063 9.4140625"></polygon>
            </g>
        </g>
    </g>
</svg>