<?xml version="1.0" encoding="UTF-8"?>
<svg width="36px" height="36px" viewBox="0 0 36 36" version="1.1" xmlns="http://www.w3.org/2000/svg" xmlns:xlink="http://www.w3.org/1999/xlink">
    <!-- Generator: Sketch 64 (93537) - https://sketch.com -->
    <title>Group 14</title>
    <desc>Created with Sketch.</desc>
    <g id="Page-1" stroke="none" stroke-width="1" fill="none" fill-rule="evenodd">
        <g id="4" transform="translate(-648.000000, -326.000000)">
            <g id="Group-20" transform="translate(376.000000, 219.000000)">
                <g id="Group-18" transform="translate(41.000000, 107.000000)">
                    <g id="Group-14" transform="translate(231.000000, 0.000000)">
                        <circle id="Oval" stroke="#5D23A7" fill="#FFFFFF" cx="18" cy="18" r="17.5"></circle>
                        <g id="1345823" transform="translate(8.000000, 6.000000)" fill="#000000" fill-rule="nonzero">
                            <path d="M19.4822234,5.36444091 L18.9539112,3.776001 C18.7527363,3.17102053 18.1902864,2.76452634 17.5546323,2.76452634 L13.1143634,2.76452634 L13.1143634,1.31451417 C13.1143634,0.589782703 12.5269036,0 11.8045361,0 L7.73832103,0 C7.01613611,0 6.42849377,0.589782703 6.42849377,1.31451417 L6.42849377,2.76452634 L1.98840743,2.76452634 C1.3525707,2.76452634 0.79012083,3.17102053 0.588945939,3.776001 L0.0606337421,5.36444091 C-0.0596695706,5.72607422 0.00130358837,6.12652589 0.223472201,6.43579102 C0.445640804,6.74505614 0.805090261,6.92980959 1.18516839,6.92980959 L1.73739522,6.92980959 L2.95284194,22.0050659 C3.04320635,23.1236573 3.98956797,24 5.10771321,24 L14.6817748,24 C15.7997375,24 16.7462817,23.1236573 16.8364636,22.0048828 L18.0519102,6.92980959 L18.3576888,6.92980959 C18.7377668,6.92980959 19.0972163,6.74505614 19.3193849,6.43597411 C19.5415535,6.12670898 19.6025267,5.72607422 19.4822234,5.36444091 L19.4822234,5.36444091 Z M7.830511,1.40625 L11.7123462,1.40625 L11.7123462,2.76452634 L7.830511,2.76452634 L7.830511,1.40625 Z M15.4390102,21.8915405 C15.4072458,22.2854004 15.0746317,22.59375 14.6817748,22.59375 L5.10771321,22.59375 C4.7148563,22.59375 4.3822423,22.2854004 4.35047787,21.8915405 L3.14397634,6.92980959 L16.6453292,6.92980959 L15.4390102,21.8915405 Z M1.48583538,5.52355959 L1.91903678,4.22094727 C1.92889474,4.19091797 1.95682554,4.17077634 1.98840743,4.17077634 L17.5546323,4.17077634 C17.5862142,4.17077634 17.6139625,4.19091797 17.6240029,4.22094727 L18.0572043,5.52355959 L1.48583538,5.52355959 Z" id="Shape"></path>
                            <path d="M13.5206958,21.7705258 C13.533091,21.771248 13.5453039,21.7714286 13.557699,21.7714286 C13.9275482,21.7714286 14.2366976,21.4843342 14.2560195,21.1141811 L14.9133266,8.61528391 C14.9333775,8.23285257 14.6366233,7.90657612 14.2507333,7.88671422 C13.8637497,7.86631067 13.5354606,8.16062757 13.5152274,8.54305891 L12.8581025,21.0419561 C12.8380516,21.4243875 13.1346236,21.7506639 13.5206958,21.7705258 Z" id="Path"></path>
                            <path d="M5.70707227,21.1158003 C5.72885902,21.485415 6.0583836,21.7714286 6.45229576,21.7714286 C6.4659125,21.7714286 6.47991827,21.7710675 6.49372947,21.7703452 C6.90553789,21.7495803 7.22125122,21.4227593 7.19888093,21.0403245 L6.46416174,8.54131558 C6.44179141,8.15888077 6.08970203,7.86582525 5.67769905,7.88677064 C5.26589063,7.90753553 4.95017736,8.23435659 4.97254764,8.61679136 L5.70707227,21.1158003 Z" id="Path"></path>
                            <path d="M9.94285714,21.7714286 C10.3216071,21.7714286 10.6285714,21.4610395 10.6285714,21.0780637 L10.6285714,8.57907913 C10.6285714,8.1961034 10.3216071,7.88571429 9.94285714,7.88571429 C9.56410715,7.88571429 9.25714286,8.1961034 9.25714286,8.57907913 L9.25714286,21.0780637 C9.25714286,21.4610395 9.56410715,21.7714286 9.94285714,21.7714286 Z" id="Path"></path>
                        </g>
                    </g>
                </g>
            </g>
        </g>
    </g>
</svg>