<?xml version="1.0" encoding="UTF-8"?>
<svg width="16px" height="16px" viewBox="0 0 16 16" version="1.1" xmlns="http://www.w3.org/2000/svg" xmlns:xlink="http://www.w3.org/1999/xlink">
    <!-- Generator: Sketch 64 (93537) - https://sketch.com -->
    <title>876756</title>
    <desc>Created with Sketch.</desc>
    <g id="Page-1" stroke="none" stroke-width="1" fill="none" fill-rule="evenodd">
        <g id="1" transform="translate(-1144.000000, -108.000000)" fill="#FFFFFF" fill-rule="nonzero">
            <g id="Group-7" transform="translate(1134.000000, 97.000000)">
                <g id="876756" transform="translate(10.000000, 11.000000)">
                    <path d="M15.4244017,0 L0.571414226,0 C0.255899582,0 0.000133891213,0.25576569 0.000133891213,0.571280335 L0.000133891213,3.42761506 C0.000133891213,3.58948954 0.0688870293,3.74376569 0.189221757,3.85208368 L5.71283682,8.8232636 L5.71283682,15.4242678 C5.71270293,15.7397824 5.96833473,15.9956485 6.28384937,15.9958159 C6.37258577,15.9958159 6.46011715,15.9752301 6.53948117,15.9355649 L9.96709623,14.2217573 C10.1607699,14.1249874 10.283113,13.9269958 10.2830126,13.7104603 L10.2830126,8.8232636 L15.8066276,3.85322176 C15.9272636,3.74466946 15.9960167,3.58992469 15.9957165,3.42761506 L15.9957165,0.571280335 C15.9957165,0.25576569 15.7399163,0 15.4244017,0 Z M14.8531213,3.17338912 L9.32953975,8.14343096 C9.20890377,8.25198326 9.1401841,8.40672803 9.14045188,8.56903766 L9.14045188,13.3574226 L6.85536402,14.4999498 L6.85536402,8.56903766 C6.85533054,8.40716318 6.78661088,8.25288703 6.66627615,8.14460251 L1.14266109,3.17338912 L1.14266109,1.1425272 L14.8531213,1.1425272 L14.8531213,3.17338912 Z" id="Shape"></path>
                </g>
            </g>
        </g>
    </g>
</svg>