<?xml version="1.0" encoding="UTF-8"?>
<svg width="20px" height="24px" viewBox="0 0 20 24" version="1.1" xmlns="http://www.w3.org/2000/svg" xmlns:xlink="http://www.w3.org/1999/xlink">
    <!-- Generator: Sketch 64 (93537) - https://sketch.com -->
    <title>2865701</title>
    <desc>Created with Sketch.</desc>
    <g id="Page-1" stroke="none" stroke-width="1" fill="none" fill-rule="evenodd">
        <g id="1" transform="translate(-33.000000, -274.000000)" fill="#FFFFFF" fill-rule="nonzero">
            <g id="2865701" transform="translate(33.000000, 274.000000)">
                <path d="M3.609375,7.78125 L3.609375,9.94120313 C3.13776562,10.1054531 2.74940625,10.450875 2.53110937,10.9178437 L1.60476562,12.9040312 C1.00734375,14.1859688 1.29585937,15.7008281 2.32284375,16.6735312 L5.015625,19.2231094 L5.015625,23.53125 C5.015625,23.7901406 5.22553125,24 5.484375,24 L7.59375,24 C7.85259375,24 8.0625,23.7901406 8.0625,23.53125 C8.0625,23.2723594 7.85259375,23.0625 7.59375,23.0625 L5.953125,23.0625 L5.953125,19.0214063 C5.953125,18.8926406 5.90015625,18.7695469 5.80664062,18.6810469 L2.96751562,15.9928125 C2.23392187,15.2979844 2.02776562,14.2158281 2.45451562,13.3001719 L3.38057812,11.3145 C3.60534375,10.83375 4.16704687,10.6459688 4.62675,10.8606094 L9.25734375,13.0196719 C8.60835937,13.8960938 7.40915625,14.2269844 6.38329688,13.7488125 L5.10876563,13.1544375 C4.87410937,13.0449375 4.59520313,13.1465625 4.48584375,13.381125 C4.37639063,13.6157344 4.47792187,13.8946406 4.71253125,14.0040938 L5.98710938,14.5985156 C6.50957812,14.8420781 7.09659375,14.9505 7.702875,14.8882969 C8.69198438,15.9569063 9.234375,17.3378438 9.234375,18.8025 C9.234375,19.0613906 9.44428125,19.27125 9.703125,19.27125 C9.96196875,19.27125 10.171875,19.0613906 10.171875,18.8025 C10.171875,17.2635 9.65667188,15.8040469 8.70853125,14.6201719 C9.40664062,14.309625 10.0002656,13.7560781 10.34775,13.0109531 C10.3479375,13.0105781 10.3480312,13.0102031 10.3482188,13.0098281 C10.5810469,13.1136563 10.8384375,13.171875 11.109375,13.171875 C11.527875,13.171875 11.9147813,13.0339688 12.2271094,12.8012813 C12.5281406,13.4354063 13.1745469,13.875 13.921875,13.875 C14.2105781,13.875 14.4841875,13.8092813 14.7286875,13.6922344 C14.5994062,14.5337344 14.3899687,15.3010313 14.1728437,16.0950938 C13.8190312,17.3890781 13.453125,18.727125 13.453125,20.4375 L13.453125,23.0625 L11.8125,23.0625 C11.5536562,23.0625 11.34375,23.2723594 11.34375,23.53125 C11.34375,23.7901406 11.5536562,24 11.8125,24 L13.921875,24 C14.1807187,24 14.390625,23.7901406 14.390625,23.53125 L14.390625,20.4375 C14.390625,18.8530313 14.7240937,17.6334844 15.0771562,16.3424063 C15.4309687,15.0484219 15.796875,13.710375 15.796875,12 L15.796875,9.1875 C15.796875,8.153625 14.95575,7.3125 13.921875,7.3125 C13.503375,7.3125 13.1164687,7.45040625 12.8041406,7.68309375 C12.5031094,7.04896875 11.8567031,6.609375 11.109375,6.609375 C10.690875,6.609375 10.3039687,6.74728125 9.99164062,6.97996875 C9.69060937,6.34584375 9.04420312,5.90625 8.296875,5.90625 C7.73728125,5.90625 7.23445312,6.153 6.890625,6.54304688 C6.54679687,6.153 6.04396875,5.90625 5.484375,5.90625 C4.4505,5.90625 3.609375,6.747375 3.609375,7.78125 L3.609375,7.78125 Z M12.984375,9.1875 C12.984375,8.6705625 13.4049375,8.25 13.921875,8.25 C14.4388125,8.25 14.859375,8.6705625 14.859375,9.1875 L14.859375,12 C14.859375,12.5169375 14.4388125,12.9375 13.921875,12.9375 C13.4049375,12.9375 12.984375,12.5169375 12.984375,12 L12.984375,9.1875 Z M10.171875,8.484375 C10.171875,7.9674375 10.5924375,7.546875 11.109375,7.546875 C11.6263125,7.546875 12.046875,7.9674375 12.046875,8.484375 L12.046875,11.296875 C12.046875,11.8138125 11.6263125,12.234375 11.109375,12.234375 C10.5924375,12.234375 10.171875,11.8138125 10.171875,11.296875 L10.171875,8.484375 Z M7.359375,7.78125 C7.359375,7.2643125 7.7799375,6.84375 8.296875,6.84375 C8.8138125,6.84375 9.234375,7.2643125 9.234375,7.78125 L9.234375,11.296875 C9.234375,11.563875 9.29085938,11.8178438 9.39192187,12.048 L7.359375,11.1003281 L7.359375,7.78125 Z M4.546875,7.78125 C4.546875,7.2643125 4.9674375,6.84375 5.484375,6.84375 C6.0013125,6.84375 6.421875,7.2643125 6.421875,7.78125 L6.421875,10.6632188 L5.02317188,10.0110938 C4.87092188,9.93998437 4.71065625,9.89029688 4.546875,9.86217188 L4.546875,7.78125 Z" id="Shape"></path>
                <path d="M10.171875,2.15625 L10.171875,0.46875 C10.171875,0.209859375 9.96196875,0 9.703125,0 C9.44428125,0 9.234375,0.209859375 9.234375,0.46875 L9.234375,2.15625 C9.234375,2.41514062 9.44428125,2.625 9.703125,2.625 C9.96196875,2.625 10.171875,2.41514062 10.171875,2.15625 Z" id="Path"></path>
                <path d="M5.71870312,3.69285938 C5.94290625,3.5634375 6.01978125,3.27679688 5.89035938,3.05254688 L5.18723438,1.83426563 C5.0578125,1.61001563 4.771125,1.53314063 4.54692188,1.6625625 C4.32271875,1.79198438 4.24584375,2.078625 4.37526562,2.302875 L5.07839062,3.52115625 C5.20739063,3.74470313 5.49389063,3.82265625 5.71870312,3.69285938 Z" id="Path"></path>
                <path d="M1.92745313,5.96901562 L0.709171875,5.26589062 C0.484734375,5.13642187 0.1981875,5.21334375 0.068859375,5.43759375 C-0.0605625,5.66179687 0.0163125,5.94848437 0.240515625,6.07790625 L1.45879688,6.78103125 C1.6820625,6.90984375 1.96917188,6.8345625 2.09910938,6.60932812 C2.22853125,6.38507812 2.15165625,6.0984375 1.92745313,5.96901562 Z" id="Path"></path>
                <path d="M14.3278594,3.52120312 L15.0309844,2.30292188 C15.1604063,2.07871875 15.0835313,1.79203125 14.8593281,1.66260938 C14.6349375,1.53314063 14.3484375,1.61010938 14.2190156,1.8343125 L13.5158906,3.05259375 C13.3864688,3.27679687 13.4633438,3.56348437 13.6875469,3.69290625 C13.9108594,3.82167187 14.197875,3.74639062 14.3278594,3.52120312 Z" id="Path"></path>
                <path d="M17.9474531,6.78098437 L19.1657344,6.07785938 C19.3899375,5.9484375 19.4668125,5.66179688 19.3373906,5.43754688 C19.2079219,5.21334375 18.9213281,5.136375 18.6970781,5.26584375 L17.4787969,5.96896875 C17.2545938,6.09839063 17.1777188,6.38503125 17.3071406,6.60928125 C17.4361406,6.83282813 17.7226406,6.91078125 17.9474531,6.78098438 L17.9474531,6.78098437 Z" id="Path"></path>
                <circle id="Oval" cx="9.703125" cy="23.53125" r="1"></circle>
            </g>
        </g>
    </g>
</svg>