<?xml version="1.0" encoding="UTF-8"?>
<svg width="216px" height="45px" viewBox="0 0 216 45" version="1.1" xmlns="http://www.w3.org/2000/svg" xmlns:xlink="http://www.w3.org/1999/xlink">
    <!-- Generator: Sketch 64 (93537) - https://sketch.com -->
    <title>logo</title>
    <desc>Created with Sketch.</desc>
    <g id="Page-1" stroke="none" stroke-width="1" fill="none" fill-rule="evenodd">
        <g id="1" transform="translate(-32.000000, -29.000000)" fill-rule="nonzero">
            <g id="logo" transform="translate(32.000000, 29.000000)">
                <g id="Group" transform="translate(49.769585, 7.000000)" fill="#FFFFFF">
                    <path d="M26.0047626,30.2556522 L25.5742519,30.2556522 C24.396012,29.3008696 23.3159587,27.5791304 22.341645,25.0747826 C21.0803241,21.8582609 20.2419611,19.9408696 19.8416616,19.3147826 C18.693633,17.4991304 17.1150937,16.5913043 15.0984908,16.5913043 L15.0984908,24.3156522 C16.5033153,24.8243478 17.8250588,25.4504348 19.0637212,26.193913 L19.9700596,25.3486957 L20.5289682,25.9278261 L16.1332271,30.5217391 C15.5592128,30.1617391 15.0682795,29.8643478 14.6679801,29.6295652 C14.2676806,29.3947826 13.9504622,29.1991304 13.7238776,29.0504348 C12.5154264,28.3695652 11.2994225,27.9469565 10.06076,27.7982609 C9.83417542,27.7669565 9.57737955,27.7434783 9.30547804,27.7356522 C9.03357653,27.72 8.75412219,27.7121739 8.46711504,27.7121739 C6.17105783,27.7121739 3.38406732,28.353913 0.106143537,29.6295652 L0.0608266186,29.4026087 C2.06987668,26.6321739 4.66804669,24.746087 7.86288946,23.7286957 C7.86288946,19.886087 5.49130405,16.7634783 0.755686039,14.3530435 L7.73449152,8.95304348 L7.77980844,7.04347826 C7.81001972,4.27304348 6.63177983,2.88782609 4.24508878,2.88782609 C3.61065192,2.88782609 2.69676072,3.05217391 1.48830956,3.38086957 L1.48830956,2.80173913 C3.18014119,1.31478261 5.02302922,0.571304348 7.001868,0.571304348 C8.46711504,0.571304348 9.63024929,1.04086957 10.4912707,1.98 C11.3522922,2.91913043 11.8583311,4.14782609 12.0018347,5.66608696 L19.6754996,0.399130435 C20.1362216,0.993913043 20.6724718,1.72173913 21.291803,2.59043478 C21.9111343,3.45130435 22.6059937,4.4373913 23.3839341,5.54086957 L25.5818047,8.66347826 L19.5471017,13.1321739 C21.7298666,14.5017391 23.3537228,16.0982609 24.4186704,17.906087 C24.8491812,18.6808696 25.4534067,20.246087 26.2313472,22.593913 C26.8053615,24.3234783 27.5530906,25.646087 28.4745347,26.5695652 L29.4261899,25.8104348 L29.9397817,26.3426087 L26.0047626,30.2556522 Z M7.6891746,10.166087 L4.45656773,12.3965217 L7.6891746,15.0730435 L7.6891746,10.166087 Z M14.1997053,5.29826087 L12.2586306,6.63652174 L12.2586306,23.7365217 C12.9459372,23.7365217 13.5954797,23.8226087 14.1997053,24.0026087 L14.1997053,5.29826087 Z M16.4353399,3.64695652 L15.0984908,4.58608696 L15.0984908,15.4330435 L21.3069087,10.6982609 L16.4353399,3.64695652 Z" id="Shape"></path>
                    <path d="M34.9246428,29.9895652 C32.9684624,28.9173913 32.0621241,27.4147826 32.2131805,25.4817391 L32.2584974,24.6756522 L32.2584974,13.0226087 L31.0122821,11.6373913 L34.1995721,8.91391304 L37.5152599,11.7704348 L36.4352067,13.0226087 L36.4352067,25.3878261 C36.5787103,25.9826087 36.9790097,26.46 37.6436579,26.82 L38.4215983,26.2878261 L38.852109,26.6869565 L34.9246428,29.9895652 Z M34.0636213,6.9026087 L33.5047126,6.9026087 L34.5394489,2.34782609 L37.7267389,2.34782609 L34.0636213,6.9026087 Z" id="Shape"></path>
                    <path d="M54.1390163,13.6486957 L54.1390163,24.3626087 C54.1390163,25.3408696 54.6450552,26.6556522 55.6495802,28.2913043 C56.6843166,29.8721739 57.1979083,30.8973913 57.1979083,31.3747826 L57.1979083,31.5547826 C57.0544047,32.5956522 56.0649853,33.5817391 54.2220973,34.5052174 C53.4441569,34.8886957 52.6737693,35.28 51.8958288,35.6634783 C49.6828526,35.0373913 47.862623,34.7243478 46.4200345,34.7243478 C44.8414951,34.7243478 43.1421107,35.0373913 41.3369868,35.6634783 L40.4306484,34.8573913 L45.0831854,29.3634783 L41.0726381,26.4130435 L41.0726381,11.7704348 C41.5862298,11.6530435 42.1300328,11.4886957 42.6889415,11.2773913 C43.2478502,11.066087 43.8445229,10.8156522 44.4789598,10.5182609 C44.6224634,10.4556522 44.9623403,10.2913043 45.4910376,10.0252174 C46.019735,9.75913043 46.7448057,9.38347826 47.6662497,8.90608696 L54.2598614,12.0286957 L57.4924683,9.93130435 L57.4924683,14.1730435 L54.1390163,13.6486957 Z M51.7296668,29.2304348 C50.8686453,27.9234783 50.3475008,26.5069565 50.1813387,24.9886957 L44.0182378,32.04 C44.8792592,31.86 46.102816,31.773913 47.6813554,31.773913 C49.7810393,31.773913 52.0619909,32.1730435 54.5317629,32.9791304 L54.6148439,32.4469565 C53.2326779,31.1086957 52.2734698,30.0365217 51.7296668,29.2304348 Z M50.3021838,13.5156522 L44.8717064,11.9113043 L44.8717064,24.5895652 L47.6284856,26.5069565 L50.3021838,23.6973913 L50.3021838,13.5156522 Z" id="Shape"></path>
                    <path d="M70.3020506,31.6408696 C68.3458703,32.9791304 65.8760982,33.9495652 62.8927344,34.5443478 L62.7567837,34.2782609 C64.1616081,33.7147826 65.3096368,33.213913 66.1857639,32.7834783 C67.0618909,32.3530435 67.6963278,31.9852174 68.1041801,31.6878261 C69.6298497,30.5295652 70.3851317,28.8782609 70.3851317,26.733913 L70.3851317,14.2278261 C70.2114168,13.4217391 69.6676138,12.7252174 68.7461698,12.1304348 L65.339848,14.7678261 L65.339848,25.7947826 L66.4576654,27.086087 L63.1797416,30.0365217 L59.9471347,27.3130435 L61.19335,25.7947826 L61.19335,11.8173913 L59.0785604,11.8173913 L59.0785604,9.62608696 L61.276431,9.62608696 L61.276431,6.98869565 C61.276431,4.99304348 60.7628392,3.50608696 59.7281029,2.52 L59.811184,2.43391304 C60.8761315,2.84869565 61.7673643,3.34173913 62.4848822,3.90521739 L63.1344247,3.85826087 C64.3957456,2.37130435 65.7779116,1.62782609 67.2733699,1.62782609 C66.0347075,2.73130435 65.4229291,4.08521739 65.4229291,5.68956522 L65.4229291,13.593913 L71.4576321,8.99217391 C73.3533898,10.2991304 74.3050451,12.0443478 74.3050451,14.22 L74.3050451,25.1217391 C74.3050451,27.7434783 72.968196,29.9113043 70.3020506,31.6408696 Z" id="Path"></path>
                    <path d="M81.5859634,11.8173913 L81.5859634,24.8086957 L83.866915,26.7730435 L85.0753661,25.7947826 L85.5511938,26.4208696 L81.6765972,29.9034783 C79.6373359,28.2052174 77.8246591,27.0782609 76.2461198,26.5069565 C77.0240602,25.6773913 77.4092541,24.6052174 77.4092541,23.2904348 L77.4092541,11.7704348 L75.8986901,11.7704348 L75.944007,11.1443478 L81.5481993,3.86608696 L81.5935162,9.54 L85.9892573,9.54 L85.9892573,11.8173913 L81.5859634,11.8173913 L81.5859634,11.8173913 Z" id="Path"></path>
                    <path d="M101.925707,10.526087 L98.0057936,16.02 L102.054105,18.6104348 L102.054105,26.8278261 C101.079791,27.1565217 100.143242,27.6026087 99.2520089,28.166087 C99.0254243,28.3147826 98.6931002,28.533913 98.2625895,28.8156522 C97.8320788,29.0973913 97.318487,29.4495652 96.7142614,29.8643478 C95.2188031,29.0895652 93.7686617,28.706087 92.3638372,28.706087 C91.0118825,28.706087 89.5617411,29.0504348 88.013413,29.7313043 L87.4545044,29.3321739 L92.582869,21.7408696 L88.4363709,19.3617391 L88.4363709,12.4826087 C90.36234,11.5904348 92.1296998,10.353913 93.7384504,8.77304348 C96.1553528,9.99391304 97.990688,10.6043478 99.2520089,10.6043478 L100.369826,10.4713043 C100.770126,10.4713043 101.147767,10.3147826 101.487644,10.0017391 C101.82752,9.68869565 102.001235,9.32869565 102.001235,8.90608696 C102.001235,8.60869565 101.684017,8.04521739 101.057133,7.20782609 L100.838101,6.80869565 C100.838101,6.33130435 101.185531,6.09652174 101.872837,6.09652174 C102.733859,6.09652174 103.164471,6.64434783 103.164471,7.74782609 C103.171922,8.41304348 102.756517,9.32869565 101.925707,10.526087 Z M95.7626061,19.0956522 L90.9816712,25.5208696 C91.7596116,25.3408696 92.6886085,25.2547826 93.7837674,25.2547826 C95.2792257,25.2547826 96.8275537,25.653913 98.4363043,26.46 L98.4816213,20.52 L95.7626061,19.0956522 Z M97.8773957,13.2026087 C97.4770962,13.233913 97.0465855,13.2495652 96.5858635,13.2495652 C95.26412,13.2495652 93.8290843,12.9208696 92.2732034,12.2634783 L92.2278865,17.3973913 L94.8109508,18.7826087 L98.9876602,13.0695652 C98.6477833,13.1243478 98.2776951,13.1713043 97.8773957,13.2026087 Z" id="Shape"></path>
                    <path d="M116.276065,31.6408696 C114.319884,32.9791304 111.850112,33.9495652 108.866748,34.5443478 L108.738351,34.2782609 C110.143175,33.7147826 111.291204,33.213913 112.167331,32.7834783 C113.043458,32.3530435 113.677895,31.9852174 114.085747,31.6878261 C115.611417,30.5295652 116.366699,28.8782609 116.366699,26.733913 L116.366699,14.2278261 C116.192984,13.4217391 115.649181,12.7252174 114.727737,12.1304348 L111.321415,14.7678261 L111.321415,25.7947826 L112.439232,27.086087 L109.161308,30.0365217 L105.928702,27.3130435 L107.174917,25.7947826 L107.174917,11.8173913 L105.060127,11.8173913 L105.060127,9.62608696 L107.257998,9.62608696 L107.257998,6.98869565 C107.257998,4.99304348 106.744406,3.50608696 105.70967,2.52 L105.792751,2.43391304 C106.857698,2.84869565 107.748931,3.34173913 108.466449,3.90521739 L109.115992,3.85826087 C110.377312,2.37130435 111.759478,1.62782609 113.254937,1.62782609 C112.016274,2.73130435 111.404496,4.08521739 111.404496,5.68956522 L111.404496,13.593913 L117.439199,8.99217391 C119.334957,10.2991304 120.286612,12.0443478 120.286612,14.22 L120.286612,25.1217391 C120.279059,27.7434783 118.949763,29.9113043 116.276065,31.6408696 Z" id="Path"></path>
                    <path d="M134.115825,29.9034783 C132.28049,28.893913 131.359046,27.2817391 131.359046,25.0826087 L125.498058,29.9504348 L125.279026,29.9504348 C123.239765,27.986087 122.220134,26.0843478 122.220134,24.2373913 C122.220134,21.4982609 123.640064,18.806087 126.487477,16.1530435 L124.418004,10.5730435 L124.976913,10.62 C126.585664,10.7686957 128.066016,10.1895652 129.417971,8.87478261 L135.535755,10.9721739 L136.744206,9.98608696 L136.827287,10.166087 C136.139981,11.2695652 135.649047,12.4121739 135.36204,13.6017391 L135.36204,25.3017391 C135.565966,26.0452174 135.966266,26.5069565 136.570491,26.6869565 L137.348432,26.2878261 L137.82426,26.6869565 L134.115825,29.9034783 Z M131.359046,13.3826087 L125.112864,10.9721739 L126.925541,16.0591304 L131.366599,18.2895652 L131.366599,13.3826087 L131.359046,13.3826087 Z M131.39681,19.0956522 L126.917988,16.7713043 C126.087178,18.3208696 125.671772,19.7765217 125.671772,21.146087 C125.671772,23.1730435 126.502583,25.0434783 128.171756,26.7730435 L131.404363,23.9165217 L131.404363,19.0956522 L131.39681,19.0956522 Z" id="Shape"></path>
                    <path d="M149.886113,14.673913 L147.303048,12.0365217 L145.626322,13.3747826 L145.626322,24.9417391 L147.952591,26.82 L149.198806,25.8808696 L149.712398,26.4130435 L145.792484,29.8956522 C144.183734,28.4634783 142.348399,27.3365217 140.278926,26.4991304 C141.056866,25.8417391 141.44206,24.7695652 141.44206,23.2826087 L141.44206,14.3217391 C141.44206,13.5469565 141.09463,12.866087 140.407324,12.2713043 L139.6747,12.7643478 L139.198873,12.2713043 L142.86199,8.92173913 C143.753223,9.39913043 144.372554,9.84521739 144.712431,10.26 C145.173153,10.7686957 145.46016,11.4808696 145.573453,12.4043478 L149.923877,8.96869565 L152.725973,12.1382609 L149.886113,14.673913 Z" id="Path"></path>
                    <path d="M158.632278,20.52 L158.632278,25.1608696 L162.250079,26.8121739 L165.097492,24.933913 L165.573319,25.466087 C165.203231,25.7008696 164.818037,25.9591304 164.432844,26.2252174 C164.04765,26.4913043 163.632245,26.7886957 163.201734,27.1173913 L159.455535,29.8408696 C157.529566,28.7373913 155.550728,27.993913 153.511466,27.6104348 C154.312065,26.7495652 154.719917,25.6617391 154.719917,24.3469565 L154.719917,12.4434783 C155.724442,11.966087 156.706309,11.433913 157.67307,10.8391304 C158.632278,10.2443478 159.591486,9.6026087 160.535589,8.92173913 L166.094464,14.6817391 C162.92228,16.9669565 160.437402,18.9156522 158.632278,20.52 Z M158.586961,11.8173913 L158.586961,19.4947826 L162.680589,16.1452174 L158.586961,11.8173913 Z" id="Shape"></path>
                </g>
                <g id="Group">
                    <g fill="#FFFFFF">
                        <path d="M40.226187,29.5169492 C39.3508845,29.5169492 38.6114048,29.8372881 38.0907507,30.4474576 C37.7662851,30.8288136 37.5474595,31.309322 37.4267281,31.8584746 C36.958894,31.4771186 36.4005114,31.2711864 35.7968545,31.2711864 C34.8083663,31.2711864 33.744421,31.9652542 33.744421,33.4983051 C33.744421,34.0627119 34.0613409,34.6347458 34.5442664,34.970339 C34.9668262,35.2601695 35.4723889,35.3135593 35.9251316,35.1228814 C36.22696,34.9932203 36.3703285,34.65 36.2420514,34.3449153 C36.1137743,34.0398305 35.7742173,33.8949153 35.4723889,34.0245763 C35.4346603,34.0398305 35.3441118,34.0779661 35.2007433,33.9864407 C35.0271919,33.8720339 34.921552,33.6508475 34.921552,33.5135593 C34.921552,32.5525424 35.5855746,32.4838983 35.7893088,32.4838983 C36.7702512,32.4838983 37.2380853,33.4449153 37.4191824,33.9330508 C37.4191824,33.9330508 37.4191824,33.9330508 37.4191824,33.9330508 C37.4267281,33.9559322 37.4342738,33.9788136 37.4418195,34.0016949 C37.977565,35.5728814 37.6606452,37.9372881 36.0156801,39.2415254 C36.0081344,39.2491525 36.0081344,39.2491525 36.0005887,39.2567797 C32.386193,42.0788136 27.941769,43.6423729 23.2709737,43.6423729 C18.6001784,43.6423729 14.1482087,42.0788136 10.533813,39.2567797 C10.5262673,39.2491525 10.5262673,39.2491525 10.5187216,39.2415254 C8.8737565,37.9372881 8.55683663,35.5728814 9.09258213,34.0016949 C9.25104207,33.5440678 9.71887617,32.4838983 10.7450929,32.4838983 C10.9488271,32.4838983 11.6128497,32.5601695 11.6128497,33.5135593 C11.6128497,33.6584746 11.5072098,33.8720339 11.3336584,33.9864407 C11.1902899,34.0779661 11.0997413,34.0398305 11.0620128,34.0245763 C10.7601843,33.8949153 10.4130816,34.0398305 10.2923502,34.3449153 C10.1640731,34.65 10.3074417,35.0008475 10.6092701,35.1228814 C11.0620128,35.3135593 11.5675754,35.2601695 11.9901353,34.970339 C12.4806065,34.6423729 12.7899807,34.0627119 12.7899807,33.4983051 C12.7899807,31.9652542 11.7260354,31.2711864 10.7375472,31.2711864 C10.1338903,31.2711864 9.57550766,31.4771186 9.10767355,31.8584746 C8.98694217,31.3016949 8.76057083,30.8211864 8.44365096,30.4474576 C7.92299688,29.8372881 7.18351717,29.5169492 6.30821466,29.5169492 C4.76888955,29.5169492 3.50875576,30.7220339 3.50875576,32.2016949 C3.50875576,33.4830508 4.28596403,34.3372881 5.44800357,34.3372881 C6.21012041,34.3372881 6.61758882,34.0169492 6.82886874,33.7423729 C7.12315148,33.3610169 7.2061543,32.8347458 7.06278579,32.270339 C6.97978296,31.95 6.66286309,31.759322 6.34594321,31.8432203 C6.02902334,31.9271186 5.84038056,32.2474576 5.92338338,32.5677966 C5.97620336,32.7584746 5.96111194,32.9262712 5.90074625,33.0101695 C5.83283484,33.0940678 5.67437491,33.1398305 5.45554928,33.1398305 C4.79907239,33.1398305 4.70097815,32.5449153 4.70097815,32.1940678 C4.70097815,31.4771186 5.31972648,30.7067797 6.31576037,30.7067797 C6.84396016,30.7067797 7.25897428,30.8822034 7.55325702,31.2254237 C7.97581686,31.7211864 8.12673108,32.5525424 7.98336257,33.5669492 C7.98336257,33.5745763 7.97581686,33.5822034 7.97581686,33.5898305 C7.6739884,34.4745763 7.59098558,35.5728814 7.78717407,36.6559322 C7.56080274,36.3966102 7.3344314,36.1372881 7.11560577,35.870339 C6.91187156,35.6186441 6.534586,35.5728814 6.28557752,35.7864407 C6.03656905,35.9923729 5.99884049,36.3737288 6.2025747,36.6254237 C10.4055359,41.8347458 16.6307477,44.8169492 23.2709737,44.8169492 C29.9111996,44.8169492 36.1364115,41.8271186 40.3393727,36.6254237 C40.5431069,36.3737288 40.5053783,35.9923729 40.2563699,35.7864407 C40.0073614,35.5805085 39.6300758,35.6186441 39.4263416,35.870339 C39.207516,36.1372881 38.9886904,36.4042373 38.7547733,36.6559322 C38.9509618,35.5728814 38.867959,34.4822034 38.5661305,33.5898305 C38.5661305,33.5822034 38.5585848,33.5745763 38.5585848,33.5669492 C38.4152163,32.5525424 38.5661305,31.7211864 38.9886904,31.2254237 C39.2829731,30.8822034 39.6979872,30.7067797 40.226187,30.7067797 C41.2222209,30.7067797 41.8409692,31.4771186 41.8409692,32.1940678 C41.8409692,32.5449153 41.742875,33.1398305 41.0863981,33.1398305 C40.8675725,33.1398305 40.7015668,33.0940678 40.6412011,33.0101695 C40.5808354,32.9262712 40.5732897,32.7661017 40.618564,32.5677966 C40.7015668,32.2474576 40.5053783,31.9194915 40.1960042,31.8432203 C39.8790843,31.759322 39.5546187,31.9576271 39.4791616,32.270339 C39.3357931,32.8347458 39.4187959,33.3610169 39.7130786,33.7423729 C39.9243586,34.0169492 40.331827,34.3372881 41.0939438,34.3372881 C42.2559834,34.3372881 43.0331916,33.4754237 43.0331916,32.2016949 C43.0256459,30.7220339 41.7655121,29.5169492 40.226187,29.5169492 Z" id="Path"></path>
                        <path d="M33.0728527,34.6271186 C33.3218612,34.4135593 33.3595897,34.0398305 33.1558555,33.7881356 C32.9445756,33.5364407 32.5748357,33.4983051 32.3258273,33.7042373 C29.7904683,35.8245763 26.5759952,36.9915254 23.2785194,36.9915254 C19.9810436,36.9915254 16.7665705,35.8245763 14.2312115,33.7042373 C13.9822031,33.490678 13.6049175,33.5288136 13.4011833,33.7881356 C13.1899034,34.0398305 13.2276319,34.4211864 13.4841861,34.6271186 C16.230825,36.9228814 19.7169437,38.1813559 23.2860651,38.1813559 C26.8551866,38.1813559 30.3186681,36.9228814 33.0728527,34.6271186 Z" id="Path"></path>
                        <path d="M2.71645607,17.5957627 C3.32011298,17.5957627 3.81058421,17.1 3.81058421,16.4898305 C3.81058421,16.2381356 3.72758139,16.0169492 3.59175858,15.8262712 C4.9348952,11.8525424 7.48534562,8.29830508 10.8280957,5.77372881 C14.4424915,3.04322034 18.7435469,1.60169492 23.263428,1.60169492 C27.7908548,1.60169492 32.0919102,3.04322034 35.6987602,5.77372881 C39.0415103,8.29830508 41.5919608,11.8525424 42.9350974,15.8262712 C42.7992746,16.009322 42.7162717,16.2381356 42.7162717,16.4898305 C42.7162717,17.1 43.206743,17.5957627 43.8103999,17.5957627 C44.4140568,17.5957627 44.904528,17.1 44.904528,16.4898305 C44.904528,15.9559322 44.5347882,15.5135593 44.0367712,15.4067797 C42.6106318,11.2271186 39.9243586,7.48220339 36.4005114,4.82033898 C32.5823814,1.93728814 28.0398632,0.411864407 23.2558823,0.411864407 C18.4719013,0.411864407 13.9293831,1.93728814 10.1112532,4.82033898 C6.58740598,7.48220339 3.89358704,11.2271186 2.47499331,15.4067797 C1.97697636,15.5135593 1.60723651,15.9559322 1.60723651,16.4898305 C1.61478222,17.1 2.10525346,17.5957627 2.71645607,17.5957627 Z" id="Path"></path>
                        <path d="M23.2709737,7.03220339 C18.6529984,7.03220339 14.3217601,9.09915254 11.3789327,12.6991525 C11.1676527,12.9508475 11.2053813,13.3322034 11.4619355,13.5381356 C11.710944,13.7516949 12.0882295,13.7135593 12.2919637,13.4542373 C15.0084198,10.1288136 19.0076468,8.2220339 23.2709737,8.2220339 C27.5343006,8.2220339 31.5335276,10.1288136 34.2499836,13.4542373 C34.3631693,13.5991525 34.5367207,13.6677966 34.7027263,13.6677966 C34.8385491,13.6677966 34.9668262,13.6220339 35.0800119,13.5305085 C35.3290204,13.3169492 35.3667489,12.9432203 35.1630147,12.6915254 C32.2201873,9.09915254 27.8814033,7.03220339 23.2709737,7.03220339 Z" id="Path"></path>
                        <path d="M44.2555968,25.9932203 C43.8632199,25.9932203 43.5463,26.3135593 43.5463,26.7101695 C43.5463,27.1067797 43.8632199,27.4271186 44.2555968,27.4271186 C44.6479738,27.4271186 44.9648937,27.1067797 44.9648937,26.7101695 C44.9648937,26.3135593 44.6404281,25.9932203 44.2555968,25.9932203 Z" id="Path"></path>
                        <path d="M37.404091,29.6771186 C37.404091,29.2805085 37.0871711,28.9601695 36.6947941,28.9601695 C36.3024171,28.9601695 35.9854972,29.2805085 35.9854972,29.6771186 C35.9854972,30.0737288 36.3024171,30.3940678 36.6947941,30.3940678 C37.0871711,30.3940678 37.404091,30.0737288 37.404091,29.6771186 Z" id="Path"></path>
                        <path d="M44.957348,24.7271186 C44.7611595,24.7271186 44.6026996,24.8872881 44.6026996,25.0855932 C44.6026996,25.2838983 44.7611595,25.4440678 44.957348,25.4440678 C45.1535365,25.4440678 45.3119964,25.2838983 45.3119964,25.0855932 C45.3119964,24.8872881 45.1535365,24.7271186 44.957348,24.7271186 Z" id="Path"></path>
                        <path d="M45.1158079,23.6135593 C44.9799851,23.6135593 44.8667995,23.7279661 44.8667995,23.8652542 C44.8667995,24.0025424 44.9799851,24.1169492 45.1158079,24.1169492 C45.2516307,24.1169492 45.3648164,24.0025424 45.3648164,23.8652542 C45.3648164,23.7279661 45.2591765,23.6135593 45.1158079,23.6135593 Z" id="Path"></path>
                        <path d="M44.957348,22.8661017 C44.957348,22.95 45.0252594,23.0186441 45.1082622,23.0186441 C45.1912651,23.0186441 45.2591765,22.95 45.2591765,22.8661017 C45.2591765,22.7822034 45.1912651,22.7135593 45.1082622,22.7135593 C45.0252594,22.7135593 44.957348,22.7822034 44.957348,22.8661017 Z" id="Path"></path>
                        <path d="M45.0478965,21.9432203 C44.9875308,21.9432203 44.9347109,21.9966102 44.9347109,22.0576271 C44.9347109,22.1186441 44.9875308,22.1720339 45.0478965,22.1720339 C45.1082622,22.1720339 45.1610822,22.1186441 45.1610822,22.0576271 C45.1610822,21.9889831 45.1082622,21.9432203 45.0478965,21.9432203 Z" id="Path"></path>
                        <path d="M2.85227888,26.7101695 C2.85227888,26.3135593 2.535359,25.9932203 2.14298201,25.9932203 C1.75060502,25.9932203 1.43368515,26.3135593 1.43368515,26.7101695 C1.43368515,27.1067797 1.75060502,27.4271186 2.14298201,27.4271186 C2.535359,27.4194915 2.85227888,27.0991525 2.85227888,26.7101695 Z" id="Path"></path>
                        <path d="M10.4130816,29.6771186 C10.4130816,29.2805085 10.0961617,28.9601695 9.70378475,28.9601695 C9.31140776,28.9601695 8.99448788,29.2805085 8.99448788,29.6771186 C8.99448788,30.0737288 9.31140776,30.3940678 9.70378475,30.3940678 C10.0961617,30.3940678 10.4130816,30.0737288 10.4130816,29.6771186 Z" id="Path"></path>
                        <path d="M1.79587929,25.0855932 C1.79587929,24.8872881 1.63741935,24.7271186 1.44123086,24.7271186 C1.24504237,24.7271186 1.08658243,24.8872881 1.08658243,25.0855932 C1.08658243,25.2838983 1.24504237,25.4440678 1.44123086,25.4440678 C1.63741935,25.4440678 1.79587929,25.2762712 1.79587929,25.0855932 Z" id="Path"></path>
                        <path d="M1.03376245,23.8652542 C1.03376245,24.0025424 1.14694812,24.1169492 1.28277092,24.1169492 C1.41859373,24.1169492 1.5317794,24.0025424 1.5317794,23.8652542 C1.5317794,23.7279661 1.41859373,23.6135593 1.28277092,23.6135593 C1.14694812,23.6135593 1.03376245,23.7279661 1.03376245,23.8652542 Z" id="Path"></path>
                        <ellipse id="Oval" cx="1.29031663" cy="22.8661017" rx="1" ry="1"></ellipse>
                        <ellipse id="Oval" cx="1.35068232" cy="22.0576271" rx="1" ry="1"></ellipse>
                        <path d="M45.8854705,18.6025424 C45.7043734,18.5644068 45.4100907,18.5491525 45.1007165,18.6483051 C44.7913424,18.7398305 44.4668768,18.9457627 44.2103226,19.1974576 C44.0744998,19.3271186 43.9613141,19.4720339 43.8632199,19.6245763 C43.1991973,18.4652542 42.0748863,17.5728814 40.7770239,17.2525424 C40.724204,17.2372881 40.671384,17.229661 40.618564,17.2144068 C37.5700966,16.0855932 37.404091,14.3618644 37.404091,14.0186441 C37.404091,13.3169492 37.9700193,12.5618644 38.8075933,12.5618644 C39.3810673,12.5618644 39.8262643,13.0652542 39.8262643,13.5 C39.8262643,14.2550847 39.5697101,14.3084746 39.207516,14.3084746 C38.8830504,14.3084746 38.6189505,14.5754237 38.6189505,14.9033898 C38.6189505,15.2313559 38.8830504,15.4983051 39.207516,15.4983051 C39.7508072,15.4983051 41.0033953,15.3 41.0033953,13.4923729 C41.0033953,12.3559322 39.9771785,11.3567797 38.8000476,11.3567797 C37.2531768,11.3567797 36.2118686,12.729661 36.2118686,14.0033898 C36.2118686,14.4533898 36.3326,15.3610169 37.1399911,16.3220339 C37.4342738,16.6728814 37.7889223,16.9932203 38.1963907,17.290678 C37.404091,17.5652542 36.6872484,18.0762712 36.1892315,18.7550847 C36.1439572,18.8161017 36.0986829,18.8847458 36.0534087,18.9457627 C34.5065378,13.309322 29.3603627,9.15254237 23.2709737,9.15254237 C17.1891304,9.15254237 12.050501,13.2940678 10.4659016,18.9381356 C10.428173,18.8847458 10.3904445,18.8237288 10.3527159,18.7779661 C9.85469897,18.0915254 9.13031069,17.5805085 8.33046529,17.3059322 C8.7379337,17.0161017 9.08503642,16.6957627 9.37931916,16.3449153 C10.1867103,15.3762712 10.3074417,14.4762712 10.3074417,14.0262712 C10.3074417,12.7449153 9.26613349,11.379661 7.71926267,11.379661 C6.54213171,11.379661 5.51591497,12.3788136 5.51591497,13.5152542 C5.51591497,15.3228814 6.77604876,15.5211864 7.31179426,15.5211864 C7.63625985,15.5211864 7.90035974,15.2542373 7.90035974,14.9262712 C7.90035974,14.5983051 7.63625985,14.3313559 7.31179426,14.3313559 C6.94960012,14.3313559 6.69304593,14.270339 6.69304593,13.5228814 C6.69304593,13.0881356 7.1382429,12.5847458 7.71171696,12.5847458 C8.54929092,12.5847458 9.11521927,13.3398305 9.11521927,14.0415254 C9.11521927,14.3847458 8.95675933,16.1237288 5.85547198,17.2601695 C5.82528913,17.2677966 5.802652,17.2754237 5.77246915,17.2830508 C4.4670611,17.6110169 3.34275011,18.5033898 2.67872752,19.6779661 C2.58063327,19.5177966 2.4674476,19.3652542 2.32407908,19.2279661 C2.0675249,18.9686441 1.74305931,18.7627119 1.43368515,18.6635593 C1.12431099,18.5567797 0.830028244,18.579661 0.648931173,18.6101695 C0.46028839,18.6635593 0.362194143,18.7322034 0.362194143,18.7855932 C0.362194143,18.8313559 0.46028839,18.8923729 0.596111194,18.9762712 C0.731933997,19.0754237 0.905485358,19.1898305 1.04130816,19.3652542 C1.3355909,19.7008475 1.51668797,20.1737288 1.67514791,20.5855932 C1.81097072,20.9288136 1.9317021,21.2720339 2.05997919,21.5466102 L2.03734205,21.6838983 L2.03734205,21.8059322 L2.02225063,22.1186441 C2.02225063,22.2254237 2.02979634,22.3245763 2.02979634,22.4237288 L2.04488777,22.7288136 C2.05243348,22.8279661 2.07507061,22.9347458 2.08261632,23.0338983 C2.19580199,23.85 2.47499331,24.6355932 2.89755314,25.3372881 C3.31256727,26.0389831 3.8709499,26.6415254 4.51988108,27.1220339 C4.48215252,27.1372881 4.43687825,27.1449153 4.3991497,27.1601695 C4.05959269,27.2898305 3.70494425,27.5110169 3.39557009,27.7932203 C3.08619593,28.0754237 2.85227888,28.4262712 2.70136465,28.7618644 C2.55045042,29.0974576 2.50517616,29.4177966 2.49763044,29.6389831 C2.51272187,29.8677966 2.55045042,29.9974576 2.6032704,30.0050847 C2.64099896,30.0127119 2.7315475,29.9059322 2.84473316,29.7533898 C2.97301026,29.6008475 3.13147019,29.4025424 3.35029582,29.2194915 C3.56157574,29.0364407 3.81058421,28.8610169 4.08222982,28.7237288 C4.34632972,28.5864407 4.61797532,28.479661 4.85943809,28.3805085 C5.3348179,28.1974576 5.78756058,28.0754237 6.14975472,27.9610169 C6.3383975,28.029661 6.534586,28.0830508 6.7383202,28.1288136 C7.13069719,28.220339 7.5381656,28.2661017 7.94563401,28.2813559 C8.35310242,28.2966102 8.76811655,28.2584746 9.16803924,28.1745763 C9.56796194,28.0983051 9.95279322,27.9762712 10.3225331,27.8237288 C10.5187216,27.7398305 10.6998186,27.6559322 10.8884614,27.5567797 C12.8503464,32.5220339 17.6569645,36.0457627 23.263428,36.0457627 C28.8698915,36.0457627 33.6840553,32.5220339 35.6383945,27.5491525 C35.834583,27.6559322 36.0232258,27.7398305 36.22696,27.8313559 C36.5966999,27.9838983 36.9815311,28.1059322 37.3814538,28.1822034 C37.7813765,28.2584746 38.1963907,28.3042373 38.6038591,28.2889831 C39.0113275,28.2813559 39.4112502,28.2279661 39.8111729,28.1364407 C40.0073614,28.090678 40.1960042,28.0372881 40.3846469,27.9762712 C40.7468411,28.090678 41.1995838,28.2127119 41.6674179,28.3881356 C41.9088806,28.4872881 42.1805262,28.5940678 42.4370804,28.7313559 C42.7011803,28.8686441 42.9426431,29.0440678 43.153923,29.2271186 C43.3727486,29.4101695 43.5236629,29.6084746 43.6594857,29.7610169 C43.7726713,29.9135593 43.8707656,30.020339 43.9235856,30.0050847 C43.9613141,29.9974576 43.9990427,29.8677966 44.0065884,29.6466102 C43.9990427,29.4254237 43.9613141,29.1050847 43.8103999,28.7771186 C43.6670314,28.4415254 43.4331143,28.0830508 43.1312859,27.8008475 C42.8294574,27.5186441 42.474809,27.2898305 42.135252,27.1601695 C42.0975234,27.1449153 42.0673406,27.1372881 42.029612,27.1220339 C42.6860889,26.6415254 43.2444715,26.0313559 43.6594857,25.3372881 C44.0820455,24.6355932 44.3612368,23.8423729 44.4744225,23.0338983 C44.4895139,22.9347458 44.512151,22.8279661 44.512151,22.7288136 L44.5272425,22.4237288 C44.5272425,22.3169492 44.5423339,22.2177966 44.5347882,22.1186441 L44.5196967,21.8059322 L44.5196967,21.6533898 L44.4970596,21.4932203 L44.4895139,21.4627119 C44.6102453,21.1881356 44.7234309,20.8677966 44.851708,20.5474576 C45.0026223,20.1432203 45.1988108,19.670339 45.4930935,19.3423729 C45.636462,19.1745763 45.8024677,19.0601695 45.9382905,18.9610169 C46.0741133,18.8771186 46.1722075,18.8008475 46.1722075,18.7474576 C46.1722075,18.7169492 46.0741133,18.6559322 45.8854705,18.6025424 Z M10.3300788,26.5271186 C10.1867103,26.6033898 10.035796,26.6720339 9.88488182,26.7330508 C9.57550766,26.8550847 9.26613349,26.9542373 8.94166791,27.0152542 C8.62474803,27.0762712 8.30782816,27.1067797 7.98336257,27.0915254 C7.65889698,27.0838983 7.3344314,27.0381356 7.01751152,26.9618644 C5.74983202,26.6644068 4.62552103,25.8254237 3.96149844,24.7042373 C3.62948714,24.1474576 3.4031158,23.5220339 3.31256727,22.8737288 C3.22201873,22.2177966 3.24465586,21.5771186 3.44839007,20.9745763 C3.84076706,19.7694915 4.85943809,18.7855932 6.08184332,18.4881356 C6.38367177,18.3966102 6.70059165,18.3737288 7.00996581,18.3661017 C7.31179426,18.3661017 7.61362271,18.4118644 7.90035974,18.4957627 C8.46628809,18.6788136 8.99448788,19.0372881 9.34913632,19.5330508 C9.53023339,19.7771186 9.68114761,20.0440678 9.77169615,20.3338983 C9.86224469,20.6237288 9.93015609,20.9211864 9.93015609,21.2262712 C9.95279322,21.8135593 9.7415133,22.3855932 9.34913632,22.820339 C8.96430504,23.2474576 8.4059224,23.5144068 7.83244834,23.5449153 L7.72680838,23.5525424 L7.62871414,23.5449153 C7.56080274,23.5449153 7.49289133,23.529661 7.42497993,23.5220339 C7.35706853,23.5144068 7.29670284,23.4915254 7.22879144,23.4762712 C7.16842575,23.4533898 7.10051435,23.4305085 7.04014865,23.4076271 C6.79868589,23.2932203 6.57231455,23.1330508 6.4063089,22.9118644 C6.24030326,22.6983051 6.11957187,22.4466102 6.07429761,22.179661 C6.0667519,22.1110169 6.05166047,22.0423729 6.05166047,21.9737288 L6.04411476,21.8745763 C6.04411476,21.8440678 6.04411476,21.8135593 6.04411476,21.7830508 C6.05166047,21.6610169 6.07429761,21.5313559 6.11957187,21.4169492 C6.14220901,21.340678 6.17993757,21.2720339 6.21766612,21.1957627 C6.4063089,21.5161017 6.75341162,21.7372881 7.14578861,21.7372881 C7.74189981,21.7372881 8.22482533,21.2491525 8.22482533,20.6466102 C8.22482533,20.0440678 7.74189981,19.5559322 7.14578861,19.5559322 C7.10806006,19.5559322 7.06278579,19.5559322 7.02505723,19.5635593 C6.87414301,19.5711864 6.73077449,19.5864407 6.57986026,19.6169492 C6.35348893,19.670339 6.1346633,19.7694915 5.93092909,19.8915254 C5.72719489,20.0211864 5.55364353,20.1813559 5.39518359,20.3644068 C5.23672365,20.5474576 5.11599227,20.7610169 5.02544373,20.9898305 C4.9348952,21.2186441 4.88207522,21.4550847 4.85943809,21.6991525 C4.85943809,21.7601695 4.85189237,21.8211864 4.85189237,21.8822034 L4.85943809,22.0576271 C4.85943809,22.1720339 4.88207522,22.2864407 4.89716664,22.4008475 C4.98016947,22.8584746 5.18390367,23.2932203 5.46309499,23.659322 C5.74228631,24.0254237 6.11957187,24.3152542 6.54213171,24.5135593 C6.95714583,24.7118644 7.44007135,24.7881356 7.88526832,24.7576271 C8.66247659,24.7271186 9.41704772,24.4067797 9.99806749,23.8881356 C10.0810703,24.7652542 10.247076,25.6194915 10.4885387,26.4355932 C10.4508102,26.4661017 10.3904445,26.4966102 10.3300788,26.5271186 Z M23.2709737,34.8711864 C16.5854735,34.8711864 11.1374699,29.3720339 11.1374699,22.6067797 C11.1374699,15.8415254 16.5779278,10.3423729 23.2709737,10.3423729 C29.9564739,10.3423729 35.4044775,15.8415254 35.4044775,22.6067797 C35.4044775,29.3720339 29.9564739,34.8711864 23.2709737,34.8711864 Z M43.2444715,22.8661017 C43.153923,23.5144068 42.9350974,24.1398305 42.5955404,24.6966102 C41.9315178,25.8177966 40.8072068,26.6567797 39.5395273,26.9542373 C39.2226074,27.0305085 38.8981418,27.0686441 38.5736762,27.0838983 C38.2492106,27.0991525 37.9398365,27.0686441 37.6153709,27.0076271 C37.298451,26.9466102 36.9815311,26.8474576 36.672157,26.7254237 C36.5212428,26.6644068 36.3703285,26.5957627 36.22696,26.5194915 C36.1590486,26.4813559 36.0911372,26.4508475 36.0307715,26.4127119 C36.2722343,25.5889831 36.4382399,24.7347458 36.513697,23.85 C37.0947168,24.3838983 37.8643794,24.7118644 38.6491333,24.7423729 C39.0943303,24.7652542 39.5697101,24.6889831 39.99227,24.4983051 C40.4148298,24.3076271 40.7921154,24.0177966 41.0713067,23.6440678 C41.350498,23.2779661 41.5542322,22.8432203 41.637235,22.3855932 C41.6523264,22.2711864 41.6749636,22.1567797 41.6749636,22.0423729 L41.6825093,21.8669492 C41.6825093,21.8059322 41.6749636,21.7449153 41.6749636,21.6838983 C41.6523264,21.4398305 41.6070522,21.1957627 41.5089579,20.9745763 C41.4184094,20.7533898 41.297678,20.5398305 41.1392181,20.3491525 C40.9807581,20.1661017 40.8072068,20.0059322 40.6034726,19.8762712 C40.3997384,19.7542373 40.1809127,19.6550847 39.9545414,19.6016949 C39.8111729,19.5635593 39.6602587,19.5483051 39.5093444,19.5483051 C39.4716159,19.540678 39.4338873,19.540678 39.3886131,19.540678 C38.7925019,19.540678 38.3095763,20.0288136 38.3095763,20.6313559 C38.3095763,21.2338983 38.7925019,21.7220339 39.3886131,21.7220339 C39.7885358,21.7220339 40.1280928,21.5008475 40.3167355,21.1805085 C40.3544641,21.2491525 40.3921927,21.3254237 40.4148298,21.4016949 C40.4601041,21.5161017 40.4827412,21.6457627 40.4902869,21.7677966 C40.4902869,21.7983051 40.4902869,21.8288136 40.4902869,21.859322 L40.4827412,21.9584746 C40.4827412,22.0271186 40.4676498,22.0957627 40.4601041,22.1644068 C40.4148298,22.4313559 40.2940984,22.6830508 40.1280928,22.8966102 C39.9620871,23.1101695 39.7357158,23.2779661 39.494253,23.3923729 C39.4338873,23.4228814 39.3659759,23.4381356 39.3056102,23.4610169 C39.2376988,23.4762712 39.1773331,23.4991525 39.1094217,23.5067797 C39.0415103,23.5144068 38.9735989,23.529661 38.9056875,23.529661 L38.8075933,23.5372881 L38.7019533,23.529661 C38.1284793,23.4991525 37.5700966,23.2322034 37.1852653,22.8050847 C36.7928884,22.3779661 36.5816084,21.8059322 36.6042456,21.2110169 C36.6042456,20.9059322 36.672157,20.6008475 36.7627055,20.3186441 C36.8532541,20.0288136 37.0041683,19.7618644 37.1852653,19.5177966 C37.5474595,19.029661 38.0681136,18.6711864 38.6340419,18.4805085 C38.920779,18.3966102 39.2226074,18.3508475 39.5244359,18.3508475 C39.83381,18.3661017 40.1507299,18.3889831 40.4525583,18.4728814 C41.6749636,18.770339 42.6936346,19.7542373 43.0860116,20.959322 C43.3123829,21.5694915 43.3350201,22.2101695 43.2444715,22.8661017 Z" id="Shape"></path>
                    </g>
                    <ellipse id="Oval" fill="#E2B224" cx="23.2709737" cy="22.5457627" rx="12.2768723" ry="12.409322"></ellipse>
                    <path d="M30.2432109,31.2483051 L29.979111,31.2483051 C29.2622685,30.6838983 28.6057916,29.6618644 28.0096804,28.1745763 C27.2400178,26.2677966 26.7344552,25.1237288 26.4854467,24.7576271 C25.7836956,23.6822034 24.8253902,23.140678 23.602985,23.140678 L23.602985,27.7245763 C24.4556504,28.0220339 25.2630415,28.3957627 26.0176126,28.8381356 L26.5684495,28.3347458 L26.9080065,28.6779661 L24.2368247,31.4084746 C23.889722,31.1949153 23.5878936,31.0194915 23.3464308,30.8745763 C23.104968,30.7372881 22.9087795,30.6228814 22.7729567,30.5313559 C22.0410227,30.1271186 21.2939973,29.8754237 20.5469719,29.7915254 C20.4036034,29.7762712 20.2526892,29.7610169 20.0866835,29.7533898 C19.9206779,29.7457627 19.7471265,29.7381356 19.5735751,29.7381356 C18.1776186,29.7381356 16.4798335,30.1194915 14.4877657,30.8745763 L14.4651286,30.7449153 C15.6875338,29.1050847 17.2721332,27.9838983 19.211381,27.3813559 C19.211381,25.1008475 17.7701501,23.2474576 14.8876884,21.8135593 L19.1359239,18.6101695 L19.158561,17.4737288 C19.1736524,15.8338983 18.4568099,15.0101695 17.0080333,15.0101695 C16.623202,15.0101695 16.0648194,15.109322 15.3328854,15.3 L15.3328854,14.9491525 C16.3666478,14.0644068 17.4834131,13.6220339 18.6907269,13.6220339 C19.5811209,13.6220339 20.2904177,13.8966102 20.8110718,14.4533898 C21.3317259,15.0101695 21.6411,15.7423729 21.7316486,16.6423729 L26.4024439,13.5152542 C26.6816352,13.8661017 27.0061008,14.3008475 27.3833864,14.8118644 C27.7606719,15.3228814 28.1832318,15.9101695 28.6586116,16.5584746 L29.9942025,18.4118644 L26.3269868,21.0661017 C27.655032,21.8822034 28.6435201,22.820339 29.2924513,23.9033898 C29.5565512,24.3610169 29.9187454,25.2915254 30.3941252,26.6872881 C30.7412279,27.709322 31.2015163,28.4949153 31.7598989,29.0440678 L32.333373,28.5940678 L32.6502928,28.9144068 L30.2432109,31.2483051 Z M19.105741,19.3194915 L17.1363104,20.6466102 L19.105741,22.2330508 L19.105741,19.3194915 Z M23.0596938,16.4288136 L21.8825628,17.229661 L21.8825628,27.3813559 C22.3051226,27.3813559 22.6974996,27.4347458 23.0596938,27.5415254 L23.0596938,16.4288136 Z M24.4254675,15.4525424 L23.6105307,16.009322 L23.6105307,22.4466102 L27.3833864,19.6398305 L24.4254675,15.4525424 Z" id="Shape" fill="#232160"></path>
                </g>
            </g>
        </g>
    </g>
</svg>