<?xml version="1.0" encoding="UTF-8"?>
<svg width="28px" height="26px" viewBox="0 0 28 26" version="1.1" xmlns="http://www.w3.org/2000/svg" xmlns:xlink="http://www.w3.org/1999/xlink">
    <!-- Generator: Sketch 64 (93537) - https://sketch.com -->
    <title>Metamask</title>
    <desc>Created with Sketch.</desc>
    <g id="Page-1" stroke="none" stroke-width="1" fill="none" fill-rule="evenodd" stroke-linecap="round" stroke-linejoin="round">
        <g id="1" transform="translate(-988.000000, -100.000000)" fill-rule="nonzero">
            <g id="Metamask" transform="translate(989.000000, 101.000000)">
                <polygon id="Path" stroke="#E2761B" fill="#E2761B" points="24 0 14 8 15.8492462 3.28010825"></polygon>
                <g id="Group" fill="#E4761B" stroke="#E4761B">
                    <polygon id="Path" points="1.13095238 0.0504385965 10.922619 7.57587719 9.18650794 3.10701754"></polygon>
                    <polygon id="Path" points="20.3670635 17.3307018 17.7380952 21.4263158 23.3630952 23 24.9801587 17.4214912"></polygon>
                    <polygon id="Path" points="0.0892857143 17.4214912 1.69642857 23 7.32142857 21.4263158 4.69246032 17.3307018"></polygon>
                    <polygon id="Path" points="7.00396825 10.4105263 5.43650794 12.8214912 11.0218254 13.0736842 10.8234127 6.97061404"></polygon>
                    <polygon id="Path" points="18.0456349 10.4105263 14.1765873 6.9 14.047619 13.0736842 19.6230159 12.8214912"></polygon>
                    <polygon id="Path" points="7.32142857 21.4263158 10.6746032 19.7618421 7.77777778 17.4618421"></polygon>
                    <polygon id="Path" points="14.375 19.7618421 17.7380952 21.4263158 17.2718254 17.4618421"></polygon>
                </g>
                <g id="Group" transform="translate(7.000000, 20.000000)" fill="#D7C1B3" stroke="#D7C1B3">
                    <polygon id="Path" points="10.9792453 1.58181818 7.46132075 0.0818181818 7.74150943 2.09090909 7.71037736 2.93636364"></polygon>
                    <polygon id="Path" points="0.0830188679 1.58181818 3.35188679 2.93636364 3.33113208 2.09090909 3.59056604 0.0818181818"></polygon>
                </g>
                <polygon id="Path" stroke="#233447" fill="#233447" points="11 16 8 15.045977 10.1170213 14"></polygon>
                <polygon id="Path" stroke="#233447" fill="#233447" points="15 16 15.8798587 14 18 15.045977"></polygon>
                <g id="Group" transform="translate(5.000000, 13.000000)" fill="#CD6116" stroke="#CD6116">
                    <polygon id="Path" points="2.69685535 8.9372093 3.17987421 4.68837209 0.0301886792 4.78255814"></polygon>
                    <polygon id="Path" points="12.7798742 4.68837209 13.2628931 8.9372093 15.9295597 4.78255814"></polygon>
                    <polygon id="Path" points="15.1748428 0.0104651163 9.51949686 0.272093023 10.0427673 3.29651163 10.8779874 1.4755814 12.890566 2.42790698"></polygon>
                    <polygon id="Path" points="3.07924528 2.42790698 5.0918239 1.4755814 5.91698113 3.29651163 6.45031447 0.272093023 0.78490566 0.0104651163"></polygon>
                </g>
                <g id="Group" transform="translate(5.000000, 13.000000)" fill="#E4751F" stroke="#E4751F">
                    <polygon id="Path" points="0.0833333333 0.00909090909 2.54166667 4.19090909 2.45833333 2.10909091"></polygon>
                    <polygon id="Path" points="12.6145833 2.10909091 12.5104167 4.19090909 14.9791667 0.00909090909"></polygon>
                    <polygon id="Path" points="5.94791667 0.236363636 5.39583333 2.86363636 6.08333333 5.96363636 6.23958333 1.88181818"></polygon>
                    <polygon id="Path" points="9.125 0.236363636 8.84375 1.87272727 8.96875 5.96363636 9.66666667 2.86363636"></polygon>
                </g>
                <polygon id="Path" stroke="#F6851B" fill="#F6851B" points="15.5742857 15.9080963 15 19.6389497 15.4114286 20 17.9142857 17.5054705 18 15"></polygon>
                <polygon id="Path" stroke="#F6851B" fill="#F6851B" points="8 15 8.06896552 17.5054705 10.5862069 20 11 19.6389497 10.4310345 15.9080963"></polygon>
                <polygon id="Path" stroke="#C0AD9E" fill="#C0AD9E" points="14.7 23.2163265 14.7314286 22.4571429 14.4695238 22.277551 10.52 22.277551 10.2790476 22.4571429 10.3 23.2163265 7 22 8.15238095 22.7346939 10.4885714 24 14.5009524 24 16.847619 22.7346939 18 22"></polygon>
                <polygon id="Path" stroke="#161616" fill="#161616" points="14.7458824 20.2598425 14.2941176 20 11.6870588 20 11.2352941 20.2598425 11 22 11.2164706 21.8267717 14.7647059 21.8267717 15 22"></polygon>
                <g id="Group" fill="#763D16" stroke="#763D16">
                    <polygon id="Path" points="25.1164063 7.98655462 25.9796875 3.87226891 24.6898438 0.0504201681 14.9195313 7.25042017 18.6773437 10.4067227 23.9890625 11.9495798 25.1671875 10.5882353 24.659375 10.2252101 25.471875 9.48907563 24.8421875 9.00504202 25.6546875 8.38991597"></polygon>
                    <polygon id="Path" points="0.08125 3.87226891 0.94453125 7.98655462 0.39609375 8.38991597 1.20859375 9.00504202 0.5890625 9.48907563 1.4015625 10.2252101 0.89375 10.5882353 2.06171875 11.9495798 7.3734375 10.4067227 11.13125 7.25042017 1.3609375 0.0504201681"></polygon>
                </g>
                <polygon id="Path" stroke="#F6851B" fill="#F6851B" points="24.1879022 11.5321888 18.8030888 10 20.4401544 12.3934192 18 17 21.2123552 16.9599428 26 16.9599428"></polygon>
                <polygon id="Path" stroke="#F6851B" fill="#F6851B" points="7.19483871 10 1.79612903 11.5321888 0 16.9599428 4.78967742 16.9599428 8 17 5.56387097 12.3934192"></polygon>
                <polygon id="Path" stroke="#F6851B" fill="#F6851B" points="14.0814815 13.7700865 14.4237037 8.06427689 16 4 9 4 10.5555556 8.06427689 10.9185185 13.7700865 11.042963 15.5698393 11.0533333 20 13.9259259 20 13.9466667 15.5698393"></polygon>
            </g>
        </g>
    </g>
</svg>