<?xml version="1.0" encoding="UTF-8"?>
<svg width="28px" height="20px" viewBox="0 0 28 20" version="1.1" xmlns="http://www.w3.org/2000/svg" xmlns:xlink="http://www.w3.org/1999/xlink">
    <!-- Generator: Sketch 64 (93537) - https://sketch.com -->
    <title>1828859</title>
    <desc>Created with Sketch.</desc>
    <g id="Page-1" stroke="none" stroke-width="1" fill="none" fill-rule="evenodd">
        <g id="1-payout-mobile" transform="translate(-364.000000, -48.000000)" fill="#00FFDE" fill-rule="nonzero">
            <g id="1828859" transform="translate(364.000000, 48.000000)">
                <path d="M26.8333333,11.5 L1.16666667,11.5 C0.522664406,11.5 0,10.9400024 0,10.25 C0,9.55999758 0.522664406,9 1.16666667,9 L26.8333333,9 C27.4773356,9 28,9.55999758 28,10.25 C28,10.9400024 27.4773356,11.5 26.8333333,11.5 Z" id="Path"></path>
                <path d="M26.8333333,2.5 L1.16666667,2.5 C0.522664406,2.5 0,1.94000242 0,1.25 C0,0.559997578 0.522664406,0 1.16666667,0 L26.8333333,0 C27.4773356,0 28,0.559997578 28,1.25 C28,1.94000242 27.4773356,2.5 26.8333333,2.5 Z" id="Path"></path>
                <path d="M26.8333333,20 L1.16666667,20 C0.522664406,20 0,19.4400024 0,18.75 C0,18.0599976 0.522664406,17.5 1.16666667,17.5 L26.8333333,17.5 C27.4773356,17.5 28,18.0599976 28,18.75 C28,19.4400024 27.4773356,20 26.8333333,20 Z" id="Path"></path>
            </g>
        </g>
    </g>
</svg>