<?xml version="1.0" encoding="UTF-8"?>
<svg width="22px" height="21px" viewBox="0 0 22 21" version="1.1" xmlns="http://www.w3.org/2000/svg" xmlns:xlink="http://www.w3.org/1999/xlink">
    <!-- Generator: Sketch 64 (93537) - https://sketch.com -->
    <title>1828859</title>
    <desc>Created with Sketch.</desc>
    <g id="Page-1" stroke="none" stroke-width="1" fill="none" fill-rule="evenodd">
        <g id="2-payout-mobile" transform="translate(-370.000000, -49.000000)" fill="#00FFDE" fill-rule="nonzero">
            <g id="1828859" transform="translate(370.000000, 48.000000)">
                <g id="Group-12">
                    <path d="M23.8333333,12.5 L-1.83333333,12.5 C-2.47733559,12.5 -3,11.9400024 -3,11.25 C-3,10.5599976 -2.47733559,10 -1.83333333,10 L23.8333333,10 C24.4773356,10 25,10.5599976 25,11.25 C25,11.9400024 24.4773356,12.5 23.8333333,12.5 Z" id="Path" transform="translate(11.000000, 11.250000) rotate(-45.000000) translate(-11.000000, -11.250000) "></path>
                    <path d="M23.8333333,12.5 L-1.83333333,12.5 C-2.47733559,12.5 -3,11.9400024 -3,11.25 C-3,10.5599976 -2.47733559,10 -1.83333333,10 L23.8333333,10 C24.4773356,10 25,10.5599976 25,11.25 C25,11.9400024 24.4773356,12.5 23.8333333,12.5 Z" id="Path" transform="translate(11.000000, 11.250000) rotate(45.000000) translate(-11.000000, -11.250000) "></path>
                </g>
            </g>
        </g>
    </g>
</svg>