<?xml version="1.0" encoding="UTF-8"?>
<svg width="20px" height="16px" viewBox="0 0 20 16" version="1.1" xmlns="http://www.w3.org/2000/svg" xmlns:xlink="http://www.w3.org/1999/xlink">
    <!-- Generator: Sketch 64 (93537) - https://sketch.com -->
    <title>2912045</title>
    <desc>Created with Sketch.</desc>
    <g id="Page-1" stroke="none" stroke-width="1" fill="none" fill-rule="evenodd">
        <g id="1" transform="translate(-32.000000, -234.000000)" fill="#FFFFFF" fill-rule="nonzero">
            <g id="2912045" transform="translate(32.000000, 234.000000)">
                <path d="M16.8888889,0 L2.89855072,0 C1.30028986,0 0,1.30028986 0,2.89855072 L0,16 L19.7874396,16 L19.7874396,2.89855072 C19.7874396,1.30028986 18.4871498,0 16.8888889,0 Z M1.15942029,2.9243285 C1.15942029,1.94960386 1.94960386,1.15942029 2.9243285,1.15942029 L2.9243285,6.10628019 L6.90929469,6.10628019 L6.90929469,7.42028986 L1.15942029,7.42028986 L1.15942029,2.9243285 Z M14.0046377,14.8405797 L14.0046377,13.3591111 L12.8452174,13.3591111 L12.8452174,14.8405797 L10.4735459,14.8405797 L10.4735459,13.3591111 L9.3141256,13.3591111 L9.3141256,14.8405797 L6.94245411,14.8405797 L6.94245411,13.3591111 L5.78303382,13.3591111 L5.78303382,14.8405797 L4.0836715,14.8405797 L4.0836715,8.57971014 L6.96626087,8.57971014 C7.23690821,9.94875362 8.44641546,10.9844251 9.89371981,10.9844251 C11.3410242,10.9844251 12.5505314,9.94875362 12.8211787,8.57971014 L15.7036135,8.57971014 L15.7036135,14.8405797 L14.0046377,14.8405797 Z M11.7187246,8 C11.7187246,9.00629952 10.9000193,9.82500483 9.89371981,9.82500483 C8.88742029,9.82500483 8.06871498,9.00629952 8.06871498,8 L8.06871498,6.10628019 L11.7187246,6.10628019 L11.7187246,8 Z M4.08374879,4.9468599 L4.08374879,1.15942029 L5.78303382,1.15942029 L5.78303382,2.64088889 L6.94245411,2.64088889 L6.94245411,1.15942029 L9.3141256,1.15942029 L9.3141256,2.64088889 L10.4735459,2.64088889 L10.4735459,1.15942029 L12.8452174,1.15942029 L12.8452174,2.64088889 L14.0046377,2.64088889 L14.0046377,1.15942029 L15.7036908,1.15942029 L15.7036908,4.9468599 L4.08374879,4.9468599 Z M1.15942029,8.57971014 L2.92425121,8.57971014 L2.92425121,14.8405797 L1.15942029,14.8405797 L1.15942029,8.57971014 Z M18.6280193,14.8405797 L16.8630338,14.8405797 L16.8630338,8.57971014 L18.6280193,8.57971014 L18.6280193,14.8405797 Z M18.6280193,7.42028986 L12.8781449,7.42028986 L12.8781449,6.10628019 L16.8631111,6.10628019 L16.8631111,1.15942029 C17.8378357,1.15942029 18.6280193,1.94960386 18.6280193,2.9243285 L18.6280193,7.42028986 Z" id="Shape"></path>
                <polygon id="Path" points="9.31400966 7.42009662 10.47343 7.42009662 10.47343 8.57951691 9.31400966 8.57951691"></polygon>
            </g>
        </g>
    </g>
</svg>