<?xml version="1.0" encoding="UTF-8"?>
<svg width="16px" height="16px" viewBox="0 0 16 16" version="1.1" xmlns="http://www.w3.org/2000/svg" xmlns:xlink="http://www.w3.org/1999/xlink">
    <!-- Generator: Sketch 64 (93537) - https://sketch.com -->
    <title>545661</title>
    <desc>Created with Sketch.</desc>
    <g id="Page-1" stroke="none" stroke-width="1" fill="none" fill-rule="evenodd">
        <g id="1" transform="translate(-1291.000000, -107.000000)" fill="#FFFFFF" fill-rule="nonzero">
            <g id="545661" transform="translate(1291.000000, 107.000000)">
                <path d="M15.4317187,2.20715625 C15.0879375,2.1758125 14.7839062,2.42909375 14.7525625,2.77284375 L14.66975,3.68125 C13.2647812,1.4748125 10.8259062,0 8,0 C4.95996875,0 2.280875,1.7350625 0.9509375,4.3391875 C0.7939375,4.64659375 0.915875,5.0230625 1.22328125,5.1800625 C1.53075,5.3370625 1.90715625,5.21515625 2.06415625,4.90771875 C3.1896875,2.70384375 5.44990625,1.25 8,1.25 C10.3242812,1.25 12.4218437,2.46034375 13.6235312,4.3565 L12.732375,3.72003125 C12.4514687,3.5194375 12.061125,3.5845 11.8605312,3.865375 C11.6599375,4.14628125 11.725,4.53659375 12.005875,4.73721875 L14.7082187,6.66725 C15.1042812,6.94959375 15.6505625,6.691125 15.693875,6.21540625 L15.9973437,2.88634375 C16.0287187,2.5425625 15.7754687,2.2385 15.4317187,2.20715625 Z" id="Path"></path>
                <path d="M14.7767188,10.8199375 C14.4692813,10.6629687 14.0928438,10.784875 13.9358438,11.0922812 C12.8103125,13.2961562 10.5500938,14.75 8,14.75 C5.67571875,14.75 3.57815625,13.5396563 2.37646875,11.6435 L3.267625,12.2799688 C3.54853125,12.4805625 3.93884375,12.4155 4.13946875,12.134625 C4.3400625,11.8537188 4.275,11.4634063 3.994125,11.2627812 L1.29178125,9.33275 C0.9005625,9.05325 0.349875,9.30396875 0.306125,9.78459375 L0.00265625,13.1136562 C-0.0286875,13.4574062 0.22459375,13.7614687 0.5683125,13.7928125 C0.9125,13.8240937 1.21615625,13.5705625 1.24746875,13.227125 L1.33028125,12.3187187 C2.73521875,14.5251875 5.17409375,16 8,16 C11.0400313,16 13.719125,14.2649375 15.0490625,11.6608125 C15.2060625,11.3534063 15.084125,10.9769375 14.7767188,10.8199375 Z" id="Path"></path>
            </g>
        </g>
    </g>
</svg>